<?xml version="1.0" encoding="utf-8" ?>
<svg baseProfile="full" height="600" version="1.1" width="600" xmlns="http://www.w3.org/2000/svg" xmlns:ev="http://www.w3.org/2001/xml-events" xmlns:xlink="http://www.w3.org/1999/xlink"><defs /><rect fill="#ffffff" height="600" stroke="#000000" stroke-width="1" width="600" x="0" y="0" /><g transform="translate(300.0,300.0)"><circle cx="0" cy="0" fill="none" r="26.99999999999999" stroke="#777777" stroke-dasharray="1,4" stroke-width="1" /><text font-family="Arial, Helvetica, sans-serif" font-size="10" text-anchor="middle" transform="rotate(15)" x="0" y="-30.99999999999999">82</text><circle cx="0" cy="0" fill="none" r="53.99999999999998" stroke="#777777" stroke-dasharray="1,4" stroke-width="1" /><text font-family="Arial, Helvetica, sans-serif" font-size="10" text-anchor="middle" transform="rotate(15)" x="0" y="-57.99999999999998">73</text><circle cx="0" cy="0" fill="none" r="81.00000000000003" stroke="#777777" stroke-dasharray="1,4" stroke-width="1" /><text font-family="Arial, Helvetica, sans-serif" font-size="10" text-anchor="middle" transform="rotate(15)" x="0" y="-85.00000000000003">65</text><circle cx="0" cy="0" fill="none" r="108.0" stroke="#777777" stroke-dasharray="1,4" stroke-width="1" /><text font-family="Arial, Helvetica, sans-serif" font-size="10" text-anchor="middle" transform="rotate(15)" x="0" y="-112.0">57</text><circle cx="0" cy="0" fill="none" r="135.0" stroke="#777777" stroke-dasharray="1,4" stroke-width="1" /><text font-family="Arial, Helvetica, sans-serif" font-size="10" text-anchor="middle" transform="rotate(15)" x="0" y="-139.0">48</text><circle cx="0" cy="0" fill="none" r="162.00000000000003" stroke="#777777" stroke-dasharray="1,4" stroke-width="1" /><text font-family="Arial, Helvetica, sans-serif" font-size="10" text-anchor="middle" transform="rotate(15)" x="0" y="-166.00000000000003">40</text><circle cx="0" cy="0" fill="none" r="189.00000000000003" stroke="#777777" stroke-dasharray="1,4" stroke-width="1" /><text font-family="Arial, Helvetica, sans-serif" font-size="10" text-anchor="middle" transform="rotate(15)" x="0" y="-193.00000000000003">32</text><circle cx="0" cy="0" fill="none" r="216.0" stroke="#777777" stroke-dasharray="1,4" stroke-width="1" /><text font-family="Arial, Helvetica, sans-serif" font-size="10" text-anchor="middle" transform="rotate(15)" x="0" y="-220.0">24</text><circle cx="0" cy="0" fill="none" r="243.0" stroke="#777777" stroke-dasharray="1,4" stroke-width="1" /><text font-family="Arial, Helvetica, sans-serif" font-size="10" text-anchor="middle" transform="rotate(15)" x="0" y="-247.0">15</text><circle cx="0" cy="0" fill="none" r="270.0" stroke="#333333" stroke-width="1" /><text font-family="Arial, Helvetica, sans-serif" font-size="10" text-anchor="middle" transform="rotate(15)" x="0" y="-274.0">7</text><line stroke="#777777" stroke-dasharray="1,4" stroke-width="1" x1="0" x2="1.6532731788489267e-14" y1="0" y2="-270.0" /><text dy="0.35em" font-family="Arial, Helvetica, sans-serif" font-size="10" text-anchor="start" x="1.6900125828233476e-14" y="-276.0">0°</text><line stroke="#777777" stroke-dasharray="1,4" stroke-width="1" x1="0" x2="135.00000000000003" y1="0" y2="-233.8268590217984" /><text dy="0.35em" font-family="Arial, Helvetica, sans-serif" font-size="10" text-anchor="start" x="138.00000000000003" y="-239.02301144450504">30°</text><line stroke="#777777" stroke-dasharray="1,4" stroke-width="1" x1="0" x2="233.82685902179844" y1="0" y2="-134.99999999999997" /><text dy="0.35em" font-family="Arial, Helvetica, sans-serif" font-size="10" text-anchor="start" x="239.02301144450507" y="-137.99999999999997">60°</text><line stroke="#777777" stroke-dasharray="1,4" stroke-width="1" x1="0" x2="270.0" y1="0" y2="0.0" /><text dy="0.35em" font-family="Arial, Helvetica, sans-serif" font-size="10" text-anchor="start" x="276.0" y="0.0">90°</text><line stroke="#777777" stroke-dasharray="1,4" stroke-width="1" x1="0" x2="233.82685902179844" y1="0" y2="134.99999999999997" /><text dy="0.35em" font-family="Arial, Helvetica, sans-serif" font-size="10" text-anchor="end" transform="rotate(180,239.02301144450507,137.99999999999997)" x="239.02301144450507" y="137.99999999999997">120°</text><line stroke="#777777" stroke-dasharray="1,4" stroke-width="1" x1="0" x2="135.00000000000003" y1="0" y2="233.8268590217984" /><text dy="0.35em" font-family="Arial, Helvetica, sans-serif" font-size="10" text-anchor="end" transform="rotate(180,138.00000000000003,239.02301144450504)" x="138.00000000000003" y="239.02301144450504">150°</text><line stroke="#777777" stroke-dasharray="1,4" stroke-width="1" x1="0" x2="1.6532731788489267e-14" y1="0" y2="270.0" /><text dy="0.35em" font-family="Arial, Helvetica, sans-serif" font-size="10" text-anchor="end" transform="rotate(180,1.6900125828233476e-14,276.0)" x="1.6900125828233476e-14" y="276.0">180°</text><line stroke="#777777" stroke-dasharray="1,4" stroke-width="1" x1="0" x2="-134.99999999999994" y1="0" y2="233.82685902179844" /><text dy="0.35em" font-family="Arial, Helvetica, sans-serif" font-size="10" text-anchor="end" transform="rotate(180,-137.99999999999994,239.02301144450507)" x="-137.99999999999994" y="239.02301144450507">210°</text><line stroke="#777777" stroke-dasharray="1,4" stroke-width="1" x1="0" x2="-233.82685902179844" y1="0" y2="134.99999999999997" /><text dy="0.35em" font-family="Arial, Helvetica, sans-serif" font-size="10" text-anchor="end" transform="rotate(180,-239.02301144450507,137.99999999999997)" x="-239.02301144450507" y="137.99999999999997">240°</text><line stroke="#777777" stroke-dasharray="1,4" stroke-width="1" x1="0" x2="-270.0" y1="0" y2="3.3065463576978534e-14" /><text dy="0.35em" font-family="Arial, Helvetica, sans-serif" font-size="10" text-anchor="start" x="-276.0" y="3.380025165646695e-14">270°</text><line stroke="#777777" stroke-dasharray="1,4" stroke-width="1" x1="0" x2="-233.8268590217984" y1="0" y2="-135.00000000000003" /><text dy="0.35em" font-family="Arial, Helvetica, sans-serif" font-size="10" text-anchor="start" x="-239.02301144450504" y="-138.00000000000003">300°</text><line stroke="#777777" stroke-dasharray="1,4" stroke-width="1" x1="0" x2="-135.0000000000001" y1="0" y2="-233.82685902179838" /><text dy="0.35em" font-family="Arial, Helvetica, sans-serif" font-size="10" text-anchor="start" x="-138.0000000000001" y="-239.02301144450502">330°</text><path d="M 181.033 200.142 L 180.963 199.854 L 180.949 199.559 L 180.879 199.272 L 180.843 198.953 L 180.794 198.690 L 180.757 198.371 L 180.686 198.084 L 180.648 197.766 L 180.576 197.479 L 180.560 197.185 L 180.522 196.867 L 180.449 196.581 L 180.410 196.263 L 180.371 195.946 L 180.331 195.629 L 180.257 195.343 L 180.217 195.026 L 180.176 194.709 L 180.135 194.392 L 180.094 194.076 L 180.052 193.759 L 179.976 193.475 L 179.912 193.135 L 179.869 192.819 L 179.826 192.503 L 179.783 192.187 L 179.739 191.872 L 179.673 191.533 L 179.628 191.218 L 179.583 190.903 L 179.571 190.556 L 179.503 190.218 L 179.457 189.903 L 179.389 189.566 L 179.342 189.251 L 179.305 188.882 L 179.258 188.569 L 179.188 188.231 L 179.150 187.863 L 179.101 187.550 L 179.030 187.213 L 179.013 186.869 L 178.941 186.532 L 178.901 186.165 L 178.827 185.829 L 178.809 185.486 L 178.735 185.150 L 178.693 184.784 L 178.618 184.449 L 178.575 184.083 L 178.532 183.717 L 178.456 183.382 L 178.412 183.017 L 178.367 182.652 L 178.321 182.287 L 178.244 181.953 L 178.197 181.588 L 178.150 181.224 L 178.103 180.860 L 178.055 180.496 L 177.984 180.109 L 177.935 179.746 L 177.886 179.382 L 177.813 178.996 L 177.763 178.633 L 177.712 178.271 L 177.668 177.855 L 177.616 177.493 L 177.541 177.108 L 177.488 176.746 L 177.442 176.331 L 177.365 175.947 L 177.341 175.555 L 177.263 175.172 L 177.184 174.788 L 177.135 174.375 L 177.079 174.015 L 177.028 173.601 L 176.978 173.188 L 176.896 172.807 L 176.844 172.394 L 176.791 171.982 L 176.738 171.570 L 176.684 171.159 L 176.599 170.778 L 176.544 170.367 L 176.464 169.934 L 176.408 169.524 L 176.350 169.114 L 176.292 168.704 L 176.239 168.242 L 176.180 167.833 L 176.096 167.402 L 176.036 166.993 L 175.980 166.532 L 175.917 166.124 L 175.831 165.695 L 175.772 165.235 L 175.708 164.828 L 175.648 164.369 L 175.587 163.910 L 175.521 163.504 L 175.458 163.046 L 175.395 162.588 L 175.302 162.161 L 175.237 161.704 L 175.171 161.248 L 175.105 160.792 L 175.037 160.336 L 174.945 159.859 L 174.876 159.404 L 174.833 158.919 L 174.762 158.465 L 174.666 157.989 L 174.621 157.505 L 174.523 157.031 L 174.448 156.578 L 174.376 156.074 L 174.327 155.592 L 174.225 155.120 L 174.150 154.617 L 174.073 154.115 L 174.020 153.635 L 173.914 153.164 L 173.835 152.664 L 173.754 152.164 L 173.672 151.664 L 173.616 151.135 L 173.532 150.637 L 173.447 150.139 L 173.362 149.590 L 173.275 149.093 L 173.187 148.597 L 173.099 148.049 L 173.034 147.524 L 172.918 147.008 L 172.851 146.484 L 172.757 145.940 L 172.688 145.417 L 172.592 144.873 L 172.495 144.331 L 172.397 143.789 L 172.322 143.217 L 172.222 142.677 L 172.119 142.137 L 172.041 141.567 L 171.936 141.029 L 171.854 140.461 L 171.771 139.894 L 171.662 139.307 L 171.576 138.741 L 171.463 138.156 L 171.374 137.591 L 171.258 137.007 L 171.166 136.445 L 171.048 135.863 L 170.951 135.251 L 170.855 134.691 L 170.755 134.081 L 170.653 133.473 L 170.550 132.865 L 170.445 132.258 L 170.338 131.652 L 170.230 131.047 L 170.094 130.423 L 169.982 129.820 L 169.891 129.188 L 169.772 128.537 L 169.655 127.937 L 169.532 127.288 L 169.408 126.641 L 169.307 126.014 L 169.179 125.368 L 169.048 124.724 L 168.937 124.051 L 168.803 123.409 L 168.688 122.739 L 168.550 122.099 L 168.430 121.431 L 168.309 120.764 L 168.159 120.079 L 168.054 119.386 L 167.899 118.704 L 167.769 118.042 L 167.631 117.333 L 167.517 116.644 L 167.373 115.938 L 167.227 115.233 L 167.079 114.530 L 166.929 113.828 L 166.795 113.099 L 166.640 112.400 L 166.501 111.673 L 166.333 110.930 L 166.189 110.207 L 166.034 109.438 L 165.885 108.717 L 165.724 107.952 L 165.588 107.206 L 165.422 106.444 L 165.253 105.683 L 165.080 104.925 L 164.905 104.168 L 164.745 103.384 L 164.582 102.603 L 164.415 101.823 L 164.246 101.045 L 164.045 100.252 L 163.887 99.449 L 163.707 98.677 L 163.514 97.861 L 163.334 97.019 L 163.162 96.225 L 162.958 95.416 L 162.767 94.581 L 162.573 93.748 L 162.375 92.918 L 162.173 92.089 L 161.983 91.235 L 161.789 90.384 L 161.592 89.535 L 161.390 88.688 L 161.171 87.800 L 160.962 86.959 L 160.734 86.077 L 160.532 85.212 L 160.311 84.308 L 160.085 83.406 L 159.855 82.507 L 159.649 81.626 L 159.410 80.733 L 159.180 79.816 L 158.946 78.901 L 158.706 77.990 L 158.476 77.054 L 158.211 76.108 L 157.970 75.179 L 157.725 74.253 L 157.487 73.303 L 157.214 72.344 L 156.966 71.401 L 156.695 70.421 L 156.418 69.446 L 156.165 68.487 L 155.878 67.519 L 155.596 66.528 L 155.350 65.526 L 155.056 64.544 L 154.768 63.538 L 154.473 62.537 L 154.184 61.513 L 153.887 60.494 L 153.585 59.479 L 153.286 58.442 L 152.981 57.410 L 152.669 56.383 L 152.361 55.334 L 152.045 54.290 L 151.732 53.225 L 151.412 52.165 L 151.084 51.110 L 150.759 50.034 L 150.395 48.953 L 150.063 47.862 L 149.723 46.777 L 149.384 45.671 L 149.029 44.597 L 148.674 43.504 L 148.319 42.390 L 147.956 41.282 L 147.592 40.155 L 147.226 39.009 L 146.845 37.895 L 146.462 36.761 L 146.077 35.610 L 145.682 34.465 L 145.285 33.301 L 144.905 32.178 L 144.496 31.004 L 144.077 29.837 L 143.680 28.684 L 143.248 27.507 L 142.842 26.320 L 142.395 25.134 L 141.975 23.937 L 141.544 22.748 L 141.107 21.542 L 140.660 20.345 L 140.207 19.131 L 139.775 17.930 L 139.304 16.710 L 138.857 15.477 L 138.367 14.250 L 137.901 13.011 L 137.424 11.781 L 136.937 10.537 L 136.472 9.304 L 135.965 8.054 L 135.479 6.816 L 134.983 5.563 L 134.476 4.297 L 133.957 3.040 L 133.459 1.770 L 132.917 0.487 L 132.395 -0.786 L 131.861 -2.071 L 131.347 -3.348 L 130.787 -4.636 L 130.247 -5.914 L 129.693 -7.206 L 129.159 -8.488 L 128.578 -9.781 L 128.015 -11.087 L 127.440 -12.361 L 126.881 -13.672 L 126.309 -14.972 L 125.723 -16.262 L 125.153 -17.567 L 124.566 -18.883 L 123.966 -20.189 L 123.348 -21.505 L 122.748 -22.816 L 122.130 -24.138 L 121.526 -25.477 L 120.911 -26.783 L 120.278 -28.100 L 119.630 -29.406 L 119.026 -30.738 L 118.376 -32.051 L 117.743 -33.362 L 117.089 -34.683 L 116.452 -36.003 L 115.793 -37.333 L 115.119 -38.652 L 114.454 -39.992 L 113.811 -41.312 L 113.116 -42.630 L 112.435 -43.950 L 111.761 -45.291 L 111.079 -46.602 L 110.404 -47.936 L 109.712 -49.261 L 109.005 -50.575 L 108.311 -51.894 L 107.592 -53.222 L 106.895 -54.536 L 106.183 -55.842 L 105.473 -57.172 L 104.756 -58.474 L 104.041 -59.802 L 103.320 -61.103 L 102.583 -62.396 L 101.857 -63.697 L 101.126 -64.972 L 100.394 -66.273 L 99.673 -67.585 L 98.920 -68.854 L 98.165 -70.150 L 97.445 -71.423 L 96.682 -72.723 L 95.954 -74.001 L 95.170 -75.269 L 94.434 -76.553 L 93.680 -77.830 L 92.923 -79.084 L 92.150 -80.331 L 91.384 -81.592 L 90.625 -82.868 L 89.855 -84.085 L 89.100 -85.355 L 88.305 -86.596 L 87.562 -87.807 L 86.772 -89.043 L 86.003 -90.280 L 85.233 -91.497 L 84.447 -92.708 L 83.666 -93.937 L 82.901 -95.131 L 82.103 -96.334 L 81.326 -97.542 L 80.551 -98.730 L 79.759 -99.912 L 78.989 -101.101 L 78.202 -102.284 L 77.418 -103.449 L 76.617 -104.608 L 75.857 -105.761 L 75.063 -106.923 L 74.291 -108.054 L 73.503 -109.219 L 72.720 -110.327 L 71.920 -111.470 L 71.162 -112.610 L 70.371 -113.719 L 69.583 -114.850 L 68.800 -115.964 L 68.006 -117.034 L 67.231 -118.155 L 66.466 -119.220 L 65.667 -120.293 L 64.891 -121.378 L 64.123 -122.447 L 63.340 -123.512 L 62.566 -124.561 L 61.793 -125.636 L 61.015 -126.666 L 60.259 -127.711 L 59.478 -128.722 L 58.720 -129.748 L 57.949 -130.770 L 57.167 -131.788 L 56.418 -132.783 L 55.634 -133.783 L 54.884 -134.759 L 54.112 -135.772 L 53.364 -136.731 L 52.617 -137.717 L 51.858 -138.700 L 51.101 -139.639 L 50.344 -140.605 L 49.601 -141.558 L 48.836 -142.477 L 48.097 -143.415 L 47.348 -144.349 L 46.588 -145.279 L 45.844 -146.198 L 45.141 -147.097 L 44.402 -148.001 L 43.681 -148.894 L 42.923 -149.791 L 42.209 -150.669 L 41.460 -151.552 L 40.754 -152.417 L 40.040 -153.278 L 39.318 -154.137 L 38.586 -154.992 L 37.881 -155.869 L 37.160 -156.711 L 36.459 -157.544 L 35.749 -158.373 L 35.059 -159.194 L 34.355 -159.979 L 33.650 -160.794 L 32.938 -161.605 L 32.246 -162.408 L 31.576 -163.202 L 30.869 -164.000 L 30.214 -164.783 L 29.516 -165.537 L 28.847 -166.316 L 28.171 -167.091 L 27.484 -167.832 L 26.824 -168.598 L 26.153 -169.328 L 25.481 -170.089 L 24.827 -170.810 L 24.168 -171.529 L 23.507 -172.277 L 22.866 -172.987 L 22.220 -173.694 L 21.568 -174.399 L 20.914 -175.134 L 20.282 -175.830 L 19.644 -176.525 L 19.002 -177.217 L 18.350 -177.874 L 17.728 -178.558 L 17.101 -179.240 L 16.469 -179.920 L 15.861 -180.563 L 15.219 -181.238 L 14.601 -181.876 L 14.014 -182.542 L 13.387 -183.177 L 12.789 -183.806 L 12.188 -184.467 L 11.580 -185.092 L 10.969 -185.716 L 10.385 -186.336 L 9.796 -186.922 L 9.205 -187.538 L 8.610 -188.153 L 8.044 -188.764 L 7.441 -189.374 L 6.866 -189.949 L 6.287 -190.523 L 5.739 -191.126 L 5.154 -191.696 L 4.598 -192.263 L 4.006 -192.862 L 3.444 -193.426 L 2.912 -193.988 L 2.343 -194.549 L 1.805 -195.107 L 1.229 -195.665 L 0.685 -196.188 L 0.137 -196.742 L -0.379 -197.295 L -0.932 -197.813 L -1.489 -198.363 L -2.013 -198.879 L -2.541 -199.393 L -3.071 -199.939 L -3.569 -200.451 L -4.104 -200.962 L -4.642 -201.471 L -5.148 -201.979 L -5.656 -202.486 L -6.167 -202.992 L -6.678 -203.464 L -7.194 -203.967 L -7.712 -204.469 L -8.195 -204.939 L -8.718 -205.438 L -9.206 -205.905 L -9.696 -206.371 L -10.190 -206.868 L -10.684 -207.332 L -11.181 -207.795 L -11.643 -208.258 L -12.144 -208.718 L -12.611 -209.179 L -13.079 -209.639 L -13.548 -210.066 L -14.020 -210.524 L -14.494 -210.981 L -14.968 -211.404 L -15.446 -211.859 L -15.887 -212.283 L -16.367 -212.704 L -16.813 -213.158 L -17.259 -213.580 L -17.707 -214.000 L -18.156 -214.419 L -18.607 -214.838 L -19.060 -215.255 L -19.514 -215.672 L -19.970 -216.088 L -20.390 -216.506 L -20.849 -216.920 L -21.269 -217.304 L -21.693 -217.720 L -22.119 -218.134 L -22.543 -218.516 L -22.968 -218.897 L -23.399 -219.310 L -23.827 -219.689 L -24.257 -220.067 L -24.649 -220.449 L -25.086 -220.858 L -25.477 -221.206 L -25.912 -221.582 L -26.310 -221.961 L -26.709 -222.339 L -27.109 -222.716 L -27.550 -223.088 L -27.914 -223.469 L -28.314 -223.813 L -28.719 -224.187 L -29.121 -224.529 L -29.529 -224.902 L -29.894 -225.248 L -30.305 -225.620 L -30.672 -225.964 L -31.080 -226.302 L -31.454 -226.677 L -31.825 -227.020 L -32.236 -227.356 L -32.609 -227.697 L -32.983 -228.038 L -33.357 -228.378 L -33.733 -228.717 L -34.070 -229.062 L -34.443 -229.368 L -34.822 -229.706 L -35.201 -230.043 L -35.537 -230.353 L -35.919 -230.689 L -36.261 -231.031 L -36.640 -231.333 L -36.984 -231.674 L -37.324 -231.982 L -37.705 -232.283 L -38.052 -232.622 L -38.394 -232.928 L -38.737 -233.234 L -39.081 -233.539 L -39.426 -233.844 L -39.771 -234.149 L -40.118 -234.453 L -40.465 -234.756 L -40.772 -235.066 L -41.121 -235.369 L -41.470 -235.671 L -41.779 -235.979 L -42.125 -236.249 L -42.435 -236.556 L -42.788 -236.857 L -43.094 -237.132 L -43.448 -237.431 L -43.756 -237.705 L -44.070 -238.011 L -44.379 -238.285 L -44.694 -238.590 L -45.046 -238.855 L -45.356 -239.127 L -45.674 -239.431 L -45.986 -239.702 L -46.298 -239.973 L -46.618 -240.276 L -46.890 -240.555 L -47.204 -240.825 L -47.519 -241.094 L -47.835 -241.363 L -48.109 -241.641 L -48.426 -241.909 L -48.743 -242.177 L -49.019 -242.453 L -49.331 -242.689 L -49.608 -242.964 L -49.928 -243.231 L -50.206 -243.506 L -50.520 -243.740 L -50.799 -244.014 L -51.072 -244.256 L -51.395 -244.521 L -51.676 -244.794 L -51.950 -245.036 L -52.231 -245.308 L -52.507 -245.549 L -52.782 -245.789 L -53.065 -246.061 L -53.342 -246.301 L -53.626 -246.572 L -53.904 -246.811 L -54.182 -247.050 L -54.460 -247.289 L -54.739 -247.527 L -55.026 -247.796 L -55.306 -248.034 L -55.543 -248.281 L -55.824 -248.518 L -56.105 -248.755 L -56.343 -249.001 L -56.625 -249.238 L -56.908 -249.474 L -57.147 -249.719 L -57.424 -249.923 L -57.664 -250.168 L -57.948 -250.403 L -58.189 -250.647 L -58.474 -250.882 L -58.709 -251.094 L -58.951 -251.338 L -59.237 -251.572 L -59.473 -251.783 L -59.716 -252.027 L -60.004 -252.259 L -60.240 -252.471 L -60.485 -252.713 L -60.722 -252.924 L -60.967 -253.166 L -61.249 -253.366 L -61.487 -253.576 L -61.733 -253.817 L -61.972 -254.027 L -62.211 -254.236 L -62.459 -254.477 L -62.698 -254.686 L -62.939 -254.895 L -63.187 -255.135 L -63.428 -255.344 L -63.624 -255.563 L -63.866 -255.771 L -64.107 -255.979 L -64.350 -256.186 L -64.592 -256.394 L -64.798 -256.644 L -65.041 -256.851 L -65.284 -257.058 L -65.528 -257.264 L -65.727 -257.482 L -65.963 -257.657 L -66.208 -257.863 L -66.408 -258.080 L -66.653 -258.285 L -66.853 -258.502 L -67.099 -258.708 L -67.300 -258.924 L -67.538 -259.098 L -67.740 -259.314 L -67.987 -259.518 L -68.189 -259.734 L -68.428 -259.907 L -68.630 -260.123 L -68.825 -260.307 L -69.073 -260.510 L -69.276 -260.726 L -69.471 -260.909" fill="none" stroke="#cccccc" stroke-width="2" /><circle cx="181.0327698899185" cy="200.14216971213898" fill="#cccccc" r="2.5" stroke="#cccccc" stroke-width="1" /><text fill="#000000" font-family="Arial, Helvetica, sans-serif" font-size="12" x="193.0327698899185" y="208.14216971213898">09:40:14</text><circle cx="179.34186347892145" cy="189.25132355291328" fill="#cccccc" r="2.5" stroke="#cccccc" stroke-width="1" /><text fill="#000000" font-family="Arial, Helvetica, sans-serif" font-size="12" x="191.34186347892145" y="197.25132355291328">09:40:49</text><circle cx="177.48803487686192" cy="176.74612749729485" fill="#cccccc" r="2.5" stroke="#cccccc" stroke-width="1" /><text fill="#000000" font-family="Arial, Helvetica, sans-serif" font-size="12" x="189.48803487686192" y="184.74612749729485">09:41:24</text><circle cx="175.30227514934427" cy="162.16127344587596" fill="#cccccc" r="2.5" stroke="#cccccc" stroke-width="1" /><text fill="#000000" font-family="Arial, Helvetica, sans-serif" font-size="12" x="187.30227514934427" y="170.16127344587596">09:41:59</text><circle cx="172.5922188374257" cy="144.87340698069" fill="#cccccc" r="2.5" stroke="#cccccc" stroke-width="1" /><text fill="#000000" font-family="Arial, Helvetica, sans-serif" font-size="12" x="184.5922188374257" y="152.87340698069">09:42:34</text><circle cx="168.93742461548166" cy="124.05148614075367" fill="#cccccc" r="2.5" stroke="#cccccc" stroke-width="1" /><text fill="#000000" font-family="Arial, Helvetica, sans-serif" font-size="12" x="180.93742461548166" y="132.05148614075367">09:43:10</text><circle cx="163.70732872577233" cy="98.67665136454649" fill="#cccccc" r="2.5" stroke="#cccccc" stroke-width="1" /><text fill="#000000" font-family="Arial, Helvetica, sans-serif" font-size="12" x="175.70732872577233" y="106.67665136454649">09:43:45</text><circle cx="155.87752012586392" cy="67.51883694735429" fill="#cccccc" r="2.5" stroke="#cccccc" stroke-width="1" /><text fill="#000000" font-family="Arial, Helvetica, sans-serif" font-size="12" x="167.87752012586392" y="75.51883694735429">09:44:20</text><circle cx="144.07670946498874" cy="29.836852164135745" fill="#cccccc" r="2.5" stroke="#cccccc" stroke-width="1" /><text fill="#000000" font-family="Arial, Helvetica, sans-serif" font-size="12" x="156.07670946498874" y="37.83685216413575">09:44:55</text><circle cx="126.88121315341101" cy="-13.671689817686524" fill="#cccccc" r="2.5" stroke="#cccccc" stroke-width="1" /><text fill="#000000" font-family="Arial, Helvetica, sans-serif" font-size="12" x="138.881213153411" y="-5.671689817686524">09:45:30</text><circle cx="104.04118226675803" cy="-59.80217283242355" fill="#cccccc" r="2.5" stroke="#cccccc" stroke-width="1" /><text fill="#000000" font-family="Arial, Helvetica, sans-serif" font-size="12" x="116.04118226675803" y="-51.80217283242355">09:46:06</text><circle cx="77.41767903302662" cy="-103.44870066100704" fill="#cccccc" r="2.5" stroke="#cccccc" stroke-width="1" /><text fill="#000000" font-family="Arial, Helvetica, sans-serif" font-size="12" x="89.41767903302662" y="-95.44870066100704">09:46:41</text><circle cx="50.34375535945781" cy="-140.60465581116358" fill="#cccccc" r="2.5" stroke="#cccccc" stroke-width="1" /><text fill="#000000" font-family="Arial, Helvetica, sans-serif" font-size="12" x="62.34375535945781" y="-132.60465581116358">09:47:16</text><circle cx="25.480633515174823" cy="-170.08873700266898" fill="#cccccc" r="2.5" stroke="#cccccc" stroke-width="1" /><text fill="#000000" font-family="Arial, Helvetica, sans-serif" font-size="12" x="37.48063351517482" y="-162.08873700266898">09:47:51</text><circle cx="4.006207781476232" cy="-192.8620096600346" fill="#cccccc" r="2.5" stroke="#cccccc" stroke-width="1" /><text fill="#000000" font-family="Arial, Helvetica, sans-serif" font-size="12" x="16.00620778147623" y="-184.8620096600346">09:48:26</text><circle cx="-14.019897791214403" cy="-210.5240487187773" fill="#cccccc" r="2.5" stroke="#cccccc" stroke-width="1" /><text fill="#000000" font-family="Arial, Helvetica, sans-serif" font-size="12" x="-2.0198977912144027" y="-202.5240487187773">09:49:02</text><circle cx="-29.12137720986718" cy="-224.5289954986922" fill="#cccccc" r="2.5" stroke="#cccccc" stroke-width="1" /><text fill="#000000" font-family="Arial, Helvetica, sans-serif" font-size="12" x="-17.12137720986718" y="-216.5289954986922">09:49:37</text><circle cx="-41.77943609059058" cy="-235.97947471205077" fill="#cccccc" r="2.5" stroke="#cccccc" stroke-width="1" /><text fill="#000000" font-family="Arial, Helvetica, sans-serif" font-size="12" x="-29.77943609059058" y="-227.97947471205077">09:50:12</text><circle cx="-52.50665924679338" cy="-245.54889683063357" fill="#cccccc" r="2.5" stroke="#cccccc" stroke-width="1" /><text fill="#000000" font-family="Arial, Helvetica, sans-serif" font-size="12" x="-40.50665924679338" y="-237.54889683063357">09:50:47</text><circle cx="-61.73322861369005" cy="-253.81737595307865" fill="#cccccc" r="2.5" stroke="#cccccc" stroke-width="1" /><text fill="#000000" font-family="Arial, Helvetica, sans-serif" font-size="12" x="-49.73322861369005" y="-245.81737595307865">09:51:22</text><circle cx="181.0327698899185" cy="200.14216971213898" fill="#808080" r="5.0" stroke="none" /><text fill="#000000" font-family="Arial, Helvetica, sans-serif" font-size="12" x="161.0327698899185" y="204.14216971213898">1</text><circle cx="180.44920209201246" cy="196.58106327806314" fill="#ff5500" r="5.0" stroke="none" /><circle cx="179.86922832805854" cy="192.8186506100143" fill="#ff6600" r="5.0" stroke="none" /><circle cx="179.30538072734714" cy="188.88241274675937" fill="#ffee00" r="5.0" stroke="none" /><circle cx="178.6930734048412" cy="184.78375610475166" fill="#aad500" r="5.0" stroke="none" /><text fill="#000000" font-family="Arial, Helvetica, sans-serif" font-size="12" x="158.6930734048412" y="188.78375610475166">10</text><circle cx="178.05522104132146" cy="180.49583837870728" fill="#ff9900" r="5.0" stroke="none" /><circle cx="177.36514737006635" cy="175.94685447643295" fill="#ffdd00" r="5.0" stroke="none" /><circle cx="176.68375349177074" cy="171.15868274151444" fill="#eef700" r="5.0" stroke="none" /><circle cx="175.91732654716864" cy="166.12425889228277" fill="#c4e100" r="5.0" stroke="none" /><text fill="#000000" font-family="Arial, Helvetica, sans-serif" font-size="12" x="155.91732654716864" y="170.12425889228277">9</text><circle cx="175.1047455825898" cy="160.79159884399542" fill="#d4ea00" r="5.0" stroke="none" /><circle cx="174.22505515662414" cy="155.119802563687" fill="#a1d000" r="5.0" stroke="none" /><circle cx="173.27526954578565" cy="149.09286867939934" fill="#d4ea00" r="5.0" stroke="none" /><circle cx="172.2215441243141" cy="142.67668747328585" fill="#c4e100" r="5.0" stroke="none" /><text fill="#000000" font-family="Arial, Helvetica, sans-serif" font-size="12" x="152.2215441243141" y="146.67668747328585">9</text><circle cx="171.0476288428003" cy="135.86256657013564" fill="#eef700" r="5.0" stroke="none" /><circle cx="169.77197279210017" cy="128.53732708502332" fill="#eef700" r="5.0" stroke="none" /><circle cx="168.308920502848" cy="120.76414417107351" fill="#ffdd00" r="5.0" stroke="none" /><circle cx="166.63954860490995" cy="112.39979477678925" fill="#ddee00" r="5.0" stroke="none" /><text fill="#000000" font-family="Arial, Helvetica, sans-serif" font-size="12" x="146.63954860490995" y="116.39979477678925">9</text><circle cx="164.7451309615853" cy="103.38449826187134" fill="#ffc400" r="5.0" stroke="none" /><circle cx="162.5728616081668" cy="93.74802243350241" fill="#ff4c00" r="5.0" stroke="none" /><circle cx="160.0849004716558" cy="83.40596053013283" fill="#ff9900" r="5.0" stroke="none" /><circle cx="157.2140201719522" cy="72.34361660741541" fill="#ff9100" r="5.0" stroke="none" /><text fill="#000000" font-family="Arial, Helvetica, sans-serif" font-size="12" x="137.2140201719522" y="76.34361660741541">7</text><circle cx="153.88737548164906" cy="60.49377971825142" fill="#ff4400" r="5.0" stroke="none" /><circle cx="150.06286919684962" cy="47.862313657391766" fill="#ff5500" r="5.0" stroke="none" /><circle cx="145.68238176201265" cy="34.464704059170714" fill="#ea1515" r="5.0" stroke="none" /><circle cx="140.66041928412162" cy="20.344660730078385" fill="#cce600" r="5.0" stroke="none" /><text fill="#000000" font-family="Arial, Helvetica, sans-serif" font-size="12" x="120.66041928412162" y="24.344660730078385">9</text><circle cx="134.98300346797015" cy="5.563065363175432" fill="#ff9900" r="5.0" stroke="none" /><circle cx="128.5779359686463" cy="-9.780670782712379" fill="#ffee00" r="5.0" stroke="none" /><circle cx="121.52573060138921" cy="-25.476604524143344" fill="#ffdd00" r="5.0" stroke="none" /><circle cx="113.8113597632857" cy="-41.311506575122166" fill="#007d06" r="5.0" stroke="none" /><text fill="#000000" font-family="Arial, Helvetica, sans-serif" font-size="12" x="93.8113597632857" y="-37.311506575122166">12</text><circle cx="105.47258097018016" cy="-57.171634055431646" fill="#3b9e00" r="5.0" stroke="none" /><circle cx="96.68203867104395" cy="-72.72294817603382" fill="#098400" r="5.0" stroke="none" /><circle cx="87.5621323118451" cy="-87.80699396375698" fill="#55aa00" r="5.0" stroke="none" /><circle cx="78.20220058779368" cy="-102.28423233510603" fill="#ddee00" r="5.0" stroke="none" /><text fill="#000000" font-family="Arial, Helvetica, sans-serif" font-size="12" x="58.20220058779368" y="-98.28423233510603">9</text><circle cx="68.79977884682751" cy="-115.96422389338657" fill="#c4e100" r="5.0" stroke="none" /><circle cx="59.47779992691316" cy="-128.72175274816098" fill="#fff600" r="5.0" stroke="none" /><circle cx="50.34375535945781" cy="-140.60465581116358" fill="#ff5500" r="5.0" stroke="none" /><circle cx="41.45986077829431" cy="-151.5517264350379" fill="#ff0000" r="5.0" stroke="none" /><text fill="#000000" font-family="Arial, Helvetica, sans-serif" font-size="12" x="21.459860778294313" y="-147.5517264350379">6</text><circle cx="32.93770991881587" cy="-161.60525074804764" fill="#ff5e00" r="5.0" stroke="none" /><circle cx="24.827143515694935" cy="-170.80994286789735" fill="#ff4400" r="5.0" stroke="none" /><circle cx="17.101021794278925" cy="-179.24027467438637" fill="#ff5500" r="5.0" stroke="none" /><circle cx="9.796156012037672" cy="-186.9217918800013" fill="#ffa100" r="5.0" stroke="none" /><text fill="#000000" font-family="Arial, Helvetica, sans-serif" font-size="12" x="-10.203843987962328" y="-182.9217918800013">7</text><circle cx="2.9119426531874466" cy="-193.98778425953117" fill="#ffee00" r="5.0" stroke="none" /><circle cx="-3.56888405472635" cy="-200.45136441464737" fill="#ffff00" r="5.0" stroke="none" /><circle cx="-9.696117550953517" cy="-206.3711401203288" fill="#ff7700" r="5.0" stroke="none" /><circle cx="-15.446454199438772" cy="-211.85934025456635" fill="#eef700" r="5.0" stroke="none" /><text fill="#000000" font-family="Arial, Helvetica, sans-serif" font-size="12" x="-35.446454199438776" y="-207.85934025456635">9</text><circle cx="-20.848777797701153" cy="-216.91966208669146" fill="#ff8800" r="5.0" stroke="none" /><circle cx="-25.912241182894" cy="-221.58159376508982" fill="#ffbb00" r="5.0" stroke="none" /><circle cx="-30.672011801035666" cy="-225.96395935241202" fill="#ffee00" r="5.0" stroke="none" /><circle cx="-35.20149098471362" cy="-230.0427737207129" fill="#ff9900" r="5.0" stroke="none" /><text fill="#000000" font-family="Arial, Helvetica, sans-serif" font-size="12" x="-55.20149098471362" y="-226.0427737207129">7</text><circle cx="-39.42586894199657" cy="-233.84428982025435" fill="#ffee00" r="5.0" stroke="none" /><circle cx="-43.44822427021586" cy="-237.4308644677448" fill="#ffcc00" r="5.0" stroke="none" /><circle cx="-47.20425121551029" cy="-240.82455578957774" fill="#ffaa00" r="5.0" stroke="none" /><circle cx="-50.79943700836738" cy="-244.0140930540307" fill="#ff6600" r="5.0" stroke="none" /><text fill="#000000" font-family="Arial, Helvetica, sans-serif" font-size="12" x="-70.79943700836738" y="-240.0140930540307">7</text><circle cx="-54.18187350498039" cy="-247.05000346171175" fill="#ffcc00" r="5.0" stroke="none" /><circle cx="-57.423623059351506" cy="-249.9227997681644" fill="#ff9900" r="5.0" stroke="none" /><circle cx="-60.484506087478444" cy="-252.71319731269642" fill="#ff8800" r="5.0" stroke="none" /><circle cx="-63.427719860814086" cy="-255.3437610242969" fill="#ff5500" r="5.0" stroke="none" /><text fill="#000000" font-family="Arial, Helvetica, sans-serif" font-size="12" x="-83.42771986081408" y="-251.3437610242969">7</text><circle cx="-66.20783974342598" cy="-257.8625107810498" fill="#f70909" r="5.0" stroke="none" /><circle cx="-68.8246651522686" cy="-260.30693644756235" fill="#d52b2b" r="5.0" stroke="none" /></g><text fill="#6A00FF" font-family="Arial, Helvetica, sans-serif" font-size="14" x="10" y="18">R2M6_AANII_01__20260109_154718_FENGYUN_3E_rec.txt</text></svg>